<?xml version="1.0"?>
<svg version="1.1" xmlns="http://www.w3.org/2000/svg" width="144" height="51" style=""><path fill="#e4ebf5" d="M18.9,41.7l0-1.8l3-0.6l0-16.2l-3.9,0l-0.75,3l-1.95,0l0-5.4l16.35,0l0,5.4l-1.95,0l-0.75-3l-3.9,0l0,16.2l3,0.6l0,1.8l-9.15,0z M40.158,25.8l0.27,2.19c0.75-0.84,2.49-2.49,4.53-2.49c1.5,0,2.7,0.45,2.7,0.45l-0.15,4.35l-1.95,0l-0.45-2.25c-2.25,0-3.69,1.47-4.35,2.34l0,8.91l3,0.75l0,1.65l-8.55,0l0-1.65l2.55-0.75l0-11.1l-2.55-0.6l0-1.65z M52.416,30.45l-0.15-3.75s3.3-1.2,5.85-1.2c3.48,0,5.55,1.2,5.55,4.65l0,9.15l2.4,0.6l0,1.65l-4.65,0.15l-0.63-2.1c-1.02,1.02-2.82,2.4-4.92,2.4c-2.85,0-4.5-1.65-4.5-4.5c0-3.45,2.7-4.65,6.9-4.65l2.4,0l0-2.4c0-1.8-1.05-2.7-2.85-2.7s-3.03,0.45-3.03,0.45l-0.42,2.25l-1.95,0z M60.666,34.8l-2.1,0c-3,0-4.14,0.75-4.14,2.55c0,1.35,0.84,2.25,2.19,2.25c2.25,0,4.05-2.4,4.05-2.4l0-2.4z M73.824,27.9l3.57,11.1l3.6-10.95l-2.07-0.45l0-1.65l6.72-0.15l0,1.8l-1.65,0.3l-5.1,13.8l-3.3,0l-4.92-13.65l-1.5-0.45l0-1.65l6.75-0.15l0,1.8z M102.552,34.2l-10.35,0c0,3.3,1.77,5.4,4.35,5.4c3,0,5.04-1.65,5.04-1.65l1.05,1.56s-2.79,2.49-6.39,2.49c-4.8,0-7.2-3.15-7.2-8.1c0-4.8,3-8.4,7.35-8.4s6.3,2.55,6.3,7.05c0,0.75-0.15,1.59-0.15,1.65z M92.322,31.95l7.2,0c0-2.25-0.87-4.11-3.27-4.11s-3.75,1.86-3.93,4.11z M115.17,40.05l0,1.65l-8.31,0l0-1.65l2.55-0.75l0-18.3l-2.55-0.6l0-1.65l5.61-0.15l0,20.7z M122.628,27.9l3.6,10.5l3.3-10.35l-2.1-0.45l0-1.65l7.11-0.15l0,1.8l-1.95,0.3l-4.26,11.88c-1.59,4.17-3.15,9.12-8.1,9.12c-0.75,0-1.92-0.15-1.92-0.15l0.27-2.1l1.5,0c2.1,0,3.45-1.98,4.77-4.89l-5.37-13.71l-1.8-0.45l0-1.65l7.05-0.15l0,1.8z"/><path fill="#" d=""/></svg>
